<?xml version="1.0" encoding="utf-8"?>
<!-- Generator: Adobe Illustrator 16.0.0, SVG Export Plug-In . SVG Version: 6.00 Build 0)  -->
<!DOCTYPE svg PUBLIC "-//W3C//DTD SVG 1.1//EN" "http://www.w3.org/Graphics/SVG/1.1/DTD/svg11.dtd">
<svg version="1.1" id="Doctor_1_" xmlns="http://www.w3.org/2000/svg" xmlns:xlink="http://www.w3.org/1999/xlink" x="0px" y="0px"
	 width="512px" height="512px" viewBox="0 0 512 512" enable-background="new 0 0 512 512" xml:space="preserve">
<circle id="Background_11_" fill="#1B9BAA" cx="256" cy="256" r="256"/>
<path id="Shadow_1_" opacity="0.1" d="M328.516,97.007h-72.233v414.189c0.004,0,0.008,0,0.012,0
	c133.146,0,242.534-101.649,254.834-231.576L328.516,97.007z"/>
<g id="Doctor">
	<path fill="#FFD0AE" d="M350.013,360.056c-74.441,0-57.833-36.507-62.884-73.06h-61.693c-5.05,36.553,11.558,73.06-62.884,73.06
		c-47.574,0-63.807,20.847-63.807,66.709v30.899c43.44,33.962,98.123,54.208,157.538,54.208s114.097-20.246,157.538-54.207v-30.9
		C413.82,380.902,397.587,360.056,350.013,360.056z"/>
	<path opacity="0.1" d="M288.4,308.196c-0.162-6.265-0.377-12.731-1.271-19.2h-61.693c-0.89,6.439-1.107,12.876-1.269,19.113
		c8.926,5.721,19.539,9.159,32.184,9.159C268.933,317.269,279.502,313.865,288.4,308.196z"/>
	<path fill="#9DD6FF" d="M350.013,360.056c-9.712,0-17.861-0.627-24.724-1.789l-69.006,7.52l-69.006-7.52
		c-6.863,1.162-15.013,1.789-24.725,1.789c-47.574,0-63.807,20.847-63.807,66.709v30.899c43.44,33.962,98.123,54.208,157.538,54.208
		s114.097-20.246,157.538-54.207v-30.9C413.82,380.902,397.587,360.056,350.013,360.056z"/>
	<path fill="#58595B" d="M287.898,366.243h-63.232l21.896,28.781l-5.859,116.394c4.989,0.29,10.012,0.454,15.074,0.454
		c5.403,0,10.76-0.188,16.08-0.518l-5.854-116.33L287.898,366.243z"/>
	<path fill="#F9F9F9" d="M350.013,360.056c-9.712,0-17.861-0.627-24.724-1.789l-68.938,137.271l-69.075-137.271
		c-6.863,1.162-15.013,1.789-24.725,1.789c-47.574,0-63.807,20.847-63.807,66.709v30.899c43.44,33.962,98.123,54.208,157.538,54.208
		s114.097-20.246,157.538-54.207v-30.9C413.82,380.902,397.587,360.056,350.013,360.056z"/>
	<path opacity="0.2" d="M246.563,395.024h19.44c0,0-4.935,1.769-9.72,1.769S246.563,395.024,246.563,395.024z"/>
	<polygon fill="#9DD6FF" points="221.763,332.052 217.021,332.052 187.037,357.928 219.218,403.487 256.283,365.786 	"/>
	<polygon fill="#9DD6FF" points="290.905,332.052 295.543,332.052 325.528,357.928 293.347,403.487 256.283,365.786 	"/>
	<ellipse fill="#FFD0AE" cx="181.47" cy="223.312" rx="13.799" ry="16.269"/>
	<ellipse fill="#FFD0AE" cx="331.232" cy="223.312" rx="13.799" ry="16.269"/>
	<path fill="#FFD0AE" d="M270.074,106.541h-27.445c-36.089,0-65.346,42.325-65.346,78.415c0,0,2.113,126.771,79.068,126.771
		c76.956,0,79.068-126.771,79.068-126.771C335.419,148.866,306.163,106.541,270.074,106.541z"/>
	<path opacity="0.1" d="M330.729,187.874c-3.112-16.222-25.291-23.159-33.206-58.626c-17.294,50.71-103.492,52.277-111.043,58.626
		c-5.013,4.215-5.306,13.511-4.937,19.287c0.345-4.792,1.584-9.883,4.937-12.702c7.551-6.349,93.749-7.917,111.043-58.626
		c7.915,35.468,30.094,42.405,33.206,58.626c0.72,3.752,1.09,7.045,1.25,9.921C332.235,200.415,332.081,194.921,330.729,187.874z"/>
	<path fill="#414042" d="M338.073,209.185c11.648-17.49,25.132-125.359-40.55-122.577C239.546,36.95,135.157,103.172,174.63,209.185
		l7.457,4.695c0,0-3.157-17.886,4.394-24.235c7.551-6.349,93.749-7.916,111.043-58.626c7.915,35.468,30.094,42.405,33.206,58.626
		c3.111,16.222-0.114,24.235-0.114,24.235L338.073,209.185z"/>
	<path opacity="0.1" d="M219.218,407.479l37.065-38.707l37.064,38.707l35.169-48.722l-0.025-0.007
		c-1.094-0.15-2.167-0.309-3.201-0.484l-31.942,45.221l-37.064-37.701l-37.065,37.701l-31.941-45.221
		c-1.035,0.176-2.108,0.334-3.202,0.484l-0.025,0.007L219.218,407.479z"/>
	<polygon fill="#FFFFFF" points="208.726,339.211 162.552,360.056 201.766,395.024 182.433,407.479 256.351,495.538 	"/>
	<polygon fill="#FFFFFF" points="303.977,339.211 350.15,360.056 310.937,395.024 330.27,407.479 256.351,495.538 	"/>
	<path opacity="0.1" d="M350.181,360.056l-39.328,34.969l2.604,1.678l40.395-36.596C352.645,360.078,351.43,360.056,350.181,360.056
		z"/>
	<path opacity="0.1" d="M162.186,360.056l39.329,34.969l-2.604,1.678l-40.395-36.596
		C159.722,360.078,160.937,360.056,162.186,360.056z"/>
	<polygon opacity="0.1" points="328.091,410.076 256.351,495.538 184.612,410.076 182.433,411.479 256.351,499.8 330.27,411.479 	
		"/>
</g>
</svg>
